<?xml version="1.0" encoding="UTF-8"?>
<svg id="Layer_2" data-name="Layer 2" xmlns="http://www.w3.org/2000/svg" viewBox="0 0 159.58 74.72">
  <defs>
    <style>
      .cls-1 {
        fill: #17332d;
        stroke-width: 0px;
      }
    </style>
  </defs>
  <g id="Layer_1-2" data-name="Layer 1">
    <g>
      <g>
        <path class="cls-1" d="M0,73.72V.99h13.17v33.42h.89L42.44.99h16.09l-28.12,32.63,28.37,40.09h-15.84l-21.7-31.18-8.06,9.52v21.66H0Z"/>
        <path class="cls-1" d="M122.67,37.36c0,7.84-1.46,14.54-4.39,20.12-2.92,5.58-6.9,9.84-11.93,12.8-5.03,2.96-10.73,4.44-17.1,4.44s-12.07-1.49-17.1-4.46c-5.03-2.97-9.01-7.25-11.93-12.82-2.92-5.58-4.39-12.27-4.39-20.08s1.46-14.54,4.39-20.12c2.92-5.58,6.9-9.84,11.93-12.8,5.03-2.96,10.73-4.44,17.1-4.44s12.07,1.48,17.1,4.44c5.03,2.96,9.01,7.23,11.93,12.8,2.92,5.58,4.39,12.28,4.39,20.12ZM109.42,37.36c0-5.52-.86-10.17-2.57-13.97-1.72-3.8-4.09-6.68-7.12-8.63-3.03-1.95-6.52-2.93-10.48-2.93s-7.45.98-10.48,2.93c-3.03,1.95-5.4,4.83-7.12,8.63-1.72,3.8-2.57,8.46-2.57,13.97s.86,10.17,2.57,13.97c1.72,3.8,4.09,6.68,7.12,8.63,3.03,1.95,6.52,2.93,10.48,2.93s7.45-.98,10.48-2.93c3.03-1.95,5.4-4.83,7.12-8.63,1.72-3.8,2.57-8.46,2.57-13.97Z"/>
      </g>
      <g id="kgvNBp.tif">
        <path class="cls-1" d="M146.25,20.93c1.67,3.49,1.63,6.75-.23,9.94-.73,1.25-1.73,2.24-2.91,3.08-.51.37-.87.32-1.37-.02-3.87-2.61-5.37-7.7-3.52-12.1.09-.22.2-.44.34-.74-.45-.05-.76.18-1.08.31-4.3,1.7-9.21.23-11.86-3.52-.41-.58-.42-.97,0-1.55,2.66-3.73,7.47-5.2,11.76-3.56.35.13.7.28,1.21.48-.66-1.59-1.16-3.08-1.15-4.69.03-3.48,1.49-6.21,4.27-8.27.53-.39.92-.39,1.48,0,3.96,2.76,5.39,7.91,3.38,12.3-.08.18-.16.36-.33.73,2.07-.99,4.07-1.41,6.18-1.12,2.91.4,5.18,1.84,6.91,4.21.4.55.32.95-.04,1.47-2.59,3.69-7.44,5.2-11.66,3.59-.39-.15-.77-.3-1.36-.54Z"/>
      </g>
    </g>
  </g>
</svg>